<svg xmlns="http://www.w3.org/2000/svg" xmlns:xlink="http://www.w3.org/1999/xlink" width="500" zoomAndPan="magnify" viewBox="0 0 375 374.999991" height="500" preserveAspectRatio="xMidYMid meet" version="1.0"><defs><clipPath id="8a1c7c1b82"><path d="M 7.847656 65 L 209 65 L 209 300 L 7.847656 300 Z M 7.847656 65 " clip-rule="nonzero"/></clipPath><clipPath id="772b7f3c85"><path d="M 157 63.316406 L 367 63.316406 L 367 301 L 157 301 Z M 157 63.316406 " clip-rule="nonzero"/></clipPath></defs><rect x="-37.5" width="450" fill="#ffffff" y="-37.499999" height="449.999989" fill-opacity="1"/><rect x="-37.5" width="450" fill="#ffffff" y="-37.499999" height="449.999989" fill-opacity="1"/><rect x="-37.5" width="450" fill="#ffffff" y="-37.499999" height="449.999989" fill-opacity="1"/><g clip-path="url(#8a1c7c1b82)"><path fill="#3dc0e7" d="M 7.835938 109.574219 C 7.835938 109.574219 31.519531 201.535156 33.765625 210.21875 C 46.460938 259.546875 119.503906 305.554688 147.867188 298.257812 C 182.847656 289.25 218.835938 215.179688 206.140625 165.867188 C 203.898438 157.167969 180.214844 65.207031 180.214844 65.207031 L 7.835938 109.574219 " fill-opacity="1" fill-rule="nonzero"/></g><path fill="#1f2455" d="M 75.457031 168.445312 C 66.191406 170.824219 56.773438 165.9375 53.203125 157.363281 C 53.285156 158.246094 53.441406 159.140625 53.664062 160.039062 C 56.285156 170.195312 66.640625 176.316406 76.800781 173.699219 C 86.976562 171.089844 93.085938 160.722656 90.480469 150.566406 C 90.242188 149.671875 89.933594 148.816406 89.582031 147.988281 C 90.605469 157.234375 84.71875 166.0625 75.457031 168.445312 " fill-opacity="1" fill-rule="nonzero"/><path fill="#1f2455" d="M 146.664062 150.121094 C 137.386719 152.5 127.96875 147.613281 124.394531 139.039062 C 124.492188 139.921875 124.632812 140.816406 124.871094 141.714844 C 127.476562 151.882812 137.847656 157.992188 148.007812 155.386719 C 158.183594 152.753906 164.292969 142.398438 161.671875 132.242188 C 161.449219 131.347656 161.140625 130.492188 160.789062 129.664062 C 161.8125 138.910156 155.925781 147.738281 146.664062 150.121094 " fill-opacity="1" fill-rule="nonzero"/><path fill="#1f2455" d="M 174.34375 228.839844 C 170.699219 214.703125 148.261719 203.847656 125.53125 209.6875 C 102.796875 215.542969 88.390625 235.886719 92.035156 250.023438 C 110.984375 237.804688 151.386719 227.3125 174.34375 228.839844 " fill-opacity="1" fill-rule="nonzero"/><g clip-path="url(#772b7f3c85)"><path fill="#f58532" d="M 201.445312 63.328125 C 201.445312 63.328125 166.507812 151.632812 163.214844 159.980469 C 144.464844 207.335938 176.472656 287.496094 203.714844 298.257812 C 237.292969 311.539062 309.988281 272.789062 328.722656 225.433594 C 332.03125 217.085938 366.96875 128.796875 366.96875 128.796875 L 201.445312 63.328125 " fill-opacity="1" fill-rule="nonzero"/></g><path fill="#1f2455" d="M 293.871094 167.644531 C 302.785156 171.160156 307.507812 180.644531 305.363281 189.695312 C 305.8125 188.910156 306.21875 188.113281 306.554688 187.246094 C 310.421875 177.492188 305.628906 166.453125 295.875 162.585938 C 286.105469 158.734375 275.0625 163.511719 271.210938 173.277344 C 270.875 174.132812 270.621094 175 270.410156 175.867188 C 275.019531 167.800781 284.972656 164.113281 293.871094 167.644531 " fill-opacity="1" fill-rule="nonzero"/><path fill="#1f2455" d="M 225.507812 140.59375 C 234.40625 144.125 239.144531 153.609375 236.984375 162.65625 C 237.433594 161.875 237.839844 161.074219 238.191406 160.207031 C 242.046875 150.457031 237.265625 139.414062 227.5 135.550781 C 217.746094 131.695312 206.703125 136.472656 202.832031 146.226562 C 202.496094 147.09375 202.246094 147.960938 202.035156 148.832031 C 206.660156 140.761719 216.609375 137.078125 225.507812 140.59375 " fill-opacity="1" fill-rule="nonzero"/><path fill="#1f2455" d="M 198.222656 197.863281 C 192.855469 211.4375 204.613281 233.421875 226.449219 242.050781 C 248.269531 250.679688 271.882812 242.695312 277.261719 229.121094 C 254.726562 227.859375 215.894531 212.601562 198.222656 197.863281 " fill-opacity="1" fill-rule="nonzero"/></svg>